<svg xmlns="http://www.w3.org/2000/svg" viewBox="320 0 244 250" xmlns:xlink="http://www.w3.org/1999/xlink">
  <defs>
    <path id="a" d="M3.236 87.595C1.45 88.555 0 87.68 0 85.65V3.333C0 1.3 1.45.43 3.236 1.39L80.3 42.754c1.786.96 1.785 2.515 0 3.474L3.235 87.594zm24.565 24.03c1.787.96 3.234.084 3.234-1.94V83.72c0-2.03-1.455-2.895-3.233-1.94L3.234 94.967c-1.785.96-1.778 2.517 0 3.47l24.568 13.19z"/>
  </defs>
  <g fill="none" fill-rule="evenodd">
    <g transform="translate(405.498 42.75)">
      <use fill="#00C1B6" xlink:href="#a"/>
      <path fill="#FFF" d="M9.37 98.624c-1.788.96-3.237.085-3.237-1.945V14.363c0-2.034 1.45-2.905 3.237-1.946l77.062 41.366c1.787.96 1.786 2.516 0 3.474L9.37 98.624zm24.564 24.03c1.786.96 3.234.085 3.234-1.94V94.75c0-2.03-1.456-2.895-3.234-1.94L9.367 105.995c-1.786.96-1.78 2.517 0 3.472l24.567 13.187z"/>
    </g>
    <path fill="#FFF" d="M357.01 198.84c1.482 1.277 2.223 3.082 2.223 5.416 0 2.433-.74 4.318-2.222 5.654-1.48 1.337-3.567 2.005-6.26 2.005h-4.936v6.462h-3.62v-21.452h8.556c2.693 0 4.78.64 6.26 1.915zm-11.196 9.83h4.787c1.676 0 2.958-.365 3.845-1.093.888-.728 1.332-1.805 1.332-3.232 0-1.386-.444-2.428-1.332-3.126-.887-.7-2.17-1.048-3.844-1.048h-4.786v8.497zm30.366-4.542c1.277 1.452 1.915 3.493 1.915 6.126 0 .27-.02.708-.06 1.317h-12.327c.29 1.267.883 2.265 1.78 2.993.898.728 1.99 1.092 3.277 1.092.877 0 1.715-.165 2.513-.494.798-.328 1.49-.797 2.08-1.405l1.87 1.99c-.82.877-1.798 1.555-2.94 2.034-1.142.478-2.406.717-3.793.717-1.655 0-3.11-.346-4.368-1.04-1.256-.693-2.23-1.663-2.924-2.91-.694-1.246-1.04-2.677-1.04-4.293 0-1.615.346-3.05 1.04-4.3.693-1.252 1.668-2.232 2.924-2.94 1.257-.708 2.683-1.062 4.28-1.062 2.572 0 4.497.725 5.773 2.176zm-2.528 1.78c-.818-.752-1.89-1.13-3.216-1.13-1.287 0-2.354.378-3.202 1.13-.847.754-1.376 1.783-1.585 3.09h9.318c-.06-1.307-.498-2.336-1.316-3.09zm14.928-3.096c.957-.573 2.08-.86 3.366-.86v3.38c-1.616-.08-2.922.297-3.92 1.13-.997.833-1.565 1.967-1.705 3.403v8.512h-3.53V202.07h3.53v3.263c.55-1.107 1.302-1.948 2.26-2.52zm15.31-.44c1.012.298 1.887.702 2.625 1.21l-1.287 2.603c-.718-.448-1.5-.8-2.348-1.054-.848-.254-1.63-.38-2.35-.38-.737 0-1.318.13-1.742.396-.424.264-.636.67-.636 1.22 0 .547.25.966.748 1.256.5.29 1.332.618 2.5.987 1.106.328 2.02.655 2.744.98.723.323 1.344.81 1.862 1.465.52.653.778 1.513.778 2.58 0 1.596-.598 2.805-1.795 3.628-1.198.823-2.684 1.234-4.46 1.234-1.226 0-2.425-.2-3.597-.598-1.172-.4-2.156-.954-2.954-1.662l1.255-2.513c.698.608 1.55 1.097 2.558 1.466 1.008.37 1.975.555 2.903.555.797 0 1.44-.143 1.93-.427.488-.284.732-.725.732-1.324 0-.45-.15-.82-.448-1.114-.3-.294-.664-.53-1.093-.703-.428-.175-1.052-.387-1.87-.636-1.087-.328-1.97-.65-2.647-.964-.678-.314-1.264-.783-1.758-1.406-.494-.624-.74-1.454-.74-2.49 0-1.557.573-2.74 1.72-3.546 1.147-.808 2.578-1.212 4.293-1.212 1.037 0 2.062.15 3.074.45zm20.964.627c1.176.697 2.09 1.677 2.745 2.94.652 1.26.98 2.71.98 4.344 0 1.616-.323 3.047-.966 4.294-.644 1.246-1.55 2.21-2.716 2.894-1.166.684-2.513 1.025-4.04 1.025-1.285 0-2.42-.25-3.402-.748-.982-.5-1.768-1.228-2.356-2.185v8.75h-3.53v-22.244h3.53v2.83c.588-.96 1.37-1.69 2.34-2.193.974-.503 2.093-.755 3.36-.755 1.525 0 2.877.35 4.054 1.047zm-2.222 11.817c.753-.45 1.34-1.08 1.758-1.892.42-.813.628-1.733.628-2.76 0-.998-.21-1.895-.628-2.693-.42-.798-1.005-1.426-1.758-1.885-.753-.46-1.608-.688-2.565-.688-.958 0-1.816.223-2.574.672-.757.45-1.346 1.077-1.765 1.885-.42.808-.628 1.71-.628 2.708 0 1.575.464 2.857 1.39 3.844.93.987 2.12 1.48 3.577 1.48.957 0 1.812-.224 2.565-.673zm23.193-10.69c1.277 1.453 1.915 3.494 1.915 6.127 0 .27-.02.708-.06 1.317h-12.326c.29 1.267.882 2.265 1.78 2.993.897.728 1.99 1.092 3.276 1.092.878 0 1.715-.165 2.513-.494.798-.328 1.49-.797 2.08-1.405l1.87 1.99c-.818.877-1.798 1.555-2.94 2.034-1.142.478-2.406.717-3.792.717-1.655 0-3.11-.346-4.368-1.04-1.256-.693-2.23-1.663-2.924-2.91-.693-1.246-1.04-2.677-1.04-4.293 0-1.615.347-3.05 1.04-4.3.693-1.252 1.668-2.232 2.924-2.94 1.257-.708 2.683-1.062 4.28-1.062 2.572 0 4.497.725 5.773 2.176zm-2.528 1.782c-.818-.754-1.89-1.13-3.216-1.13-1.286 0-2.353.376-3.2 1.13-.848.752-1.377 1.78-1.586 3.088h9.32c-.06-1.307-.5-2.336-1.317-3.09zm19.708-3.27c1.142.46 2.092 1.117 2.85 1.975l-1.93 2.273c-1.187-1.226-2.698-1.84-4.533-1.84-1.446 0-2.635.482-3.568 1.444-.932.962-1.4 2.217-1.4 3.762 0 1.536.455 2.788 1.363 3.755.907.967 2.07 1.45 3.485 1.45 2.085 0 3.685-.653 4.802-1.96l1.96 1.96c-.738.978-1.693 1.728-2.865 2.252-1.173.523-2.52.785-4.047.785-1.596 0-3.017-.346-4.264-1.04-1.247-.693-2.217-1.663-2.91-2.91-.694-1.246-1.04-2.677-1.04-4.293 0-1.635.346-3.08 1.04-4.33.693-1.252 1.663-2.227 2.91-2.925 1.246-.7 2.667-1.048 4.263-1.048 1.446 0 2.74.23 3.882.688zm13.005 15.887c-1.326 0-2.418-.4-3.276-1.197-.857-.798-1.286-1.98-1.286-3.545v-8.452h-2.304v-2.648h2.304v-4.473h3.5v4.473h4.802v2.648h-4.802v7.81c0 .816.142 1.387.427 1.71.284.326.72.488 1.31.488.657 0 1.475-.234 2.452-.702l.898 2.692c-1.357.798-2.698 1.197-4.025 1.197zm8.346-.15V202.07h3.5v16.307h-3.5zm3.217-22.5c.39.4.583.914.583 1.542 0 .607-.194 1.11-.583 1.51-.39.4-.883.598-1.48.598-.59 0-1.08-.197-1.467-.59-.39-.394-.584-.9-.584-1.52 0-.627.195-1.14.584-1.54.388-.4.877-.598 1.466-.598.598 0 1.092.2 1.48.598zm10.305 22.5l-6.313-16.306h3.68l4.533 12.852 4.473-12.85h3.516l-6.238 16.305h-3.65zm25.31-14.25c1.277 1.453 1.915 3.494 1.915 6.127 0 .27-.02.708-.06 1.317h-12.327c.29 1.267.883 2.265 1.78 2.993.898.728 1.99 1.092 3.277 1.092.877 0 1.715-.165 2.513-.494.798-.328 1.49-.797 2.08-1.405l1.87 1.99c-.82.877-1.798 1.555-2.94 2.034-1.142.478-2.406.717-3.793.717-1.655 0-3.11-.346-4.368-1.04-1.256-.693-2.23-1.663-2.924-2.91-.693-1.246-1.04-2.677-1.04-4.293 0-1.615.347-3.05 1.04-4.3.694-1.252 1.67-2.232 2.925-2.94 1.257-.708 2.683-1.062 4.28-1.062 2.572 0 4.496.725 5.773 2.176zm-2.528 1.782c-.818-.754-1.89-1.13-3.216-1.13-1.287 0-2.354.376-3.202 1.13-.848.752-1.376 1.78-1.586 3.088h9.32c-.06-1.307-.498-2.336-1.316-3.09zm17.09-3.54c1.012.3 1.887.704 2.625 1.212l-1.287 2.603c-.718-.448-1.5-.8-2.348-1.054-.848-.254-1.63-.38-2.35-.38-.737 0-1.318.13-1.742.396-.424.264-.635.67-.635 1.22 0 .547.25.966.748 1.256.5.29 1.332.618 2.5.987 1.106.328 2.02.655 2.744.98.723.323 1.344.81 1.862 1.465.52.653.778 1.513.778 2.58 0 1.596-.598 2.805-1.795 3.628-1.198.823-2.684 1.234-4.46 1.234-1.226 0-2.425-.2-3.597-.598-1.172-.4-2.156-.954-2.954-1.662l1.255-2.513c.7.608 1.55 1.097 2.558 1.466 1.008.37 1.975.555 2.903.555.798 0 1.44-.143 1.93-.427.488-.284.732-.725.732-1.324 0-.45-.15-.82-.448-1.114-.3-.294-.664-.53-1.092-.703-.43-.175-1.053-.387-1.87-.636-1.087-.328-1.97-.65-2.648-.964-.678-.314-1.264-.783-1.758-1.406-.494-.624-.74-1.454-.74-2.49 0-1.557.573-2.74 1.72-3.546 1.147-.808 2.578-1.212 4.293-1.212 1.038 0 2.062.15 3.075.45zM453.117 232.51c.94.38 1.75.91 2.427 1.586l-1.377 1.728c-.508-.547-1.108-.98-1.802-1.303-.693-.322-1.395-.483-2.104-.483-.917 0-1.76.217-2.524.65-.765.432-1.368 1.027-1.81 1.782-.444.754-.665 1.584-.665 2.49 0 .904.222 1.734.665 2.49.443.754 1.046 1.352 1.81 1.79.766.44 1.608.66 2.526.66.69 0 1.38-.146 2.07-.44.69-.292 1.303-.7 1.837-1.22l1.396 1.563c-.722.71-1.562 1.27-2.52 1.68-.956.41-1.923.615-2.9.615-1.347 0-2.578-.313-3.69-.938-1.114-.625-1.99-1.48-2.628-2.568-.638-1.087-.957-2.292-.957-3.613 0-1.31.322-2.5.967-3.57.644-1.072 1.53-1.918 2.656-2.54 1.128-.622 2.37-.933 3.732-.933.99 0 1.954.19 2.895.572zm11.84 3.45c.84.457 1.494 1.09 1.96 1.9.465.81.697 1.75.697 2.818 0 1.054-.232 1.992-.698 2.812-.465.82-1.118 1.457-1.958 1.91-.84.452-1.8.678-2.88.678-1.095 0-2.06-.226-2.9-.68-.84-.45-1.494-1.087-1.96-1.908-.465-.82-.697-1.758-.697-2.812 0-1.068.233-2.007.7-2.818.464-.81 1.117-1.443 1.957-1.9.84-.455 1.806-.683 2.9-.683 1.08 0 2.04.228 2.88.684zm-5.228 2.262c-.61.64-.915 1.466-.915 2.475 0 1.03.305 1.864.914 2.505.607.64 1.39.962 2.347.962.957 0 1.737-.32 2.34-.962.6-.64.902-1.476.902-2.505 0-1.015-.305-1.842-.914-2.48-.608-.638-1.385-.957-2.33-.957-.956 0-1.74.32-2.347.962zM470.113 246v-14.844h2.305V246h-2.306zm5.9 0v-14.844h2.303V246h-2.304zm13.954-9.302c.833.948 1.25 2.28 1.25 4 0 .175-.013.462-.04.86h-8.046c.19.825.576 1.477 1.162 1.952.586.475 1.3.713 2.14.713.572 0 1.118-.108 1.64-.323.52-.214.973-.52 1.357-.918l1.22 1.3c-.532.572-1.172 1.015-1.918 1.327-.745.312-1.57.468-2.475.468-1.08 0-2.03-.226-2.852-.68-.82-.45-1.456-1.084-1.91-1.898-.45-.814-.678-1.748-.678-2.803 0-1.054.227-1.99.68-2.807.452-.817 1.088-1.457 1.908-1.92.82-.462 1.752-.693 2.793-.693 1.68 0 2.936.474 3.77 1.42zm-1.65 1.162c-.534-.49-1.234-.737-2.1-.737-.84 0-1.537.246-2.09.737-.553.492-.9 1.164-1.035 2.017h6.084c-.04-.853-.326-1.525-.86-2.017zm12.153-2.133c.746.3 1.366.73 1.86 1.29l-1.26 1.483c-.773-.8-1.76-1.2-2.958-1.2-.944 0-1.72.313-2.33.94-.608.63-.912 1.448-.912 2.457 0 1.003.296 1.82.89 2.45.59.633 1.35.95 2.274.95 1.36 0 2.406-.428 3.135-1.28l1.278 1.28c-.482.637-1.105 1.127-1.87 1.468-.765.342-1.645.513-2.64.513-1.043 0-1.97-.226-2.785-.68-.813-.45-1.447-1.084-1.9-1.898-.452-.814-.678-1.748-.678-2.803 0-1.067.226-2.01.68-2.827.45-.817 1.085-1.453 1.898-1.91.814-.455 1.742-.683 2.784-.683.944 0 1.788.15 2.534.45zm7.78 10.37c-.867 0-1.58-.26-2.14-.78s-.84-1.293-.84-2.315v-5.518h-1.503v-1.728h1.504v-2.92h2.286v2.92h3.134v1.728h-3.134v5.098c0 .534.092.907.278 1.118.186.212.47.318.854.318.43 0 .964-.153 1.602-.46l.586 1.758c-.885.52-1.76.782-2.627.782zm4.735-.097v-10.645h2.286V246h-2.285zm2.1-14.688c.254.26.38.596.38 1.006 0 .397-.126.726-.38.987-.254.26-.576.39-.967.39-.384 0-.703-.128-.957-.385-.253-.258-.38-.588-.38-.992 0-.41.127-.745.38-1.006.255-.26.574-.39.958-.39.39 0 .713.13.967.39zm6.71 2.11c-.274.24-.41.6-.41 1.074v1.26h2.772v1.728h-2.773V246H519.1v-8.516H517.7v-1.728h1.397v-1.035c0-.787.17-1.458.51-2.01.343-.554.794-.968 1.354-1.24.56-.275 1.16-.41 1.797-.41.932 0 1.733.246 2.403.74l-.88 1.76c-.455-.333-.943-.5-1.464-.5-.41 0-.753.12-1.026.362z"/>
  </g>
</svg>
